<svg width="122" height="218" viewBox="0 0 122 218" fill="none" xmlns="http://www.w3.org/2000/svg">
<path opacity="0.2" d="M62.0146 215.119C88.1776 215.119 109.387 212.517 109.387 209.308C109.387 206.099 88.1776 203.498 62.0146 203.498C35.8517 203.498 14.6425 206.099 14.6425 209.308C14.6425 212.517 35.8517 215.119 62.0146 215.119Z" fill="#00919E"/>
<path opacity="0.2" d="M62.0146 215.119C88.1776 215.119 109.387 212.517 109.387 209.308C109.387 206.099 88.1776 203.498 62.0146 203.498C35.8517 203.498 14.6425 206.099 14.6425 209.308C14.6425 212.517 35.8517 215.119 62.0146 215.119Z" fill="#09487E"/>
<path d="M36.874 73.3872C36.5953 72.7656 35.9236 72.2644 35.2579 72.4087C34.5622 72.5591 34.1832 73.291 33.8865 73.9386C32.2608 77.4747 30.269 80.8307 27.9437 83.9515C27.278 84.8438 26.5823 85.7199 26.049 86.6944C25.5414 87.677 25.1298 88.7063 24.8199 89.768C23.0188 95.4348 21.9758 101.315 21.7182 107.256C21.7182 107.378 21.7182 107.486 21.7041 107.601C21.9071 107.702 22.1251 107.769 22.3497 107.801C24.3547 108.002 26.3236 105.054 26.7006 104.028C27.0775 103.001 29.5076 98.9209 30.9211 95.9595C32.3346 92.9981 35.9777 78.2493 36.3507 78.2493C36.4148 78.2493 37.0644 76.7295 37.1126 75.4022C37.1366 74.7185 37.1547 74.0128 36.874 73.3872Z" fill="#09487E"/>
<path d="M73.0381 124.888C72.0697 125.144 71.3018 125.858 70.578 126.55C68.4928 128.539 60.6513 129.782 59.35 129.631C58.1991 129.497 57.0402 129.712 55.8874 129.832C52.9821 130.111 50.0588 129.73 47.1696 129.327C46.1671 129.188 45.0103 129.102 44.3245 129.834C42.8509 131.406 44.4328 132.89 45.9807 133.389C45.9795 133.356 45.9894 133.323 46.0087 133.297C46.7586 132.368 57.2087 135.235 64.5029 135.648C71.761 136.049 84.6451 135.047 85.5814 133.126C85.6716 132.942 86.7503 130.02 86.7844 129.812C86.8492 129.44 86.8458 129.06 86.7744 128.689C84.1198 128.1 81.2987 128.088 78.8506 126.911C76.9619 125.986 75.0772 124.35 73.0381 124.888Z" fill="#09487E"/>
<path d="M75.0011 29.4069C76.6924 27.5279 77.6237 25.6089 77.0814 25.1207C76.539 24.6325 74.7283 25.76 73.037 27.639C71.3457 29.518 70.4144 31.4369 70.9568 31.9251C71.4991 32.4133 73.3099 31.2859 75.0011 29.4069Z" fill="#005262"/>
<path d="M97.2044 74.4378C94.5979 74.4378 91.9914 68.3787 91.9914 68.3787C91.9914 68.3787 89.2385 79.7751 86.3313 83.4804C83.424 87.1856 73.1404 95.4462 71.2737 97.3149C69.4071 99.1835 65.2587 103.837 65.2587 103.837C65.2587 103.837 68.3444 107.173 69.9925 108.912C71.6407 110.65 80.8617 120.019 82.8025 122.472C84.5849 124.723 87.2556 127.454 86.8125 129.806C86.7724 130.006 85.6937 132.936 85.6095 133.12C84.6732 135.047 71.789 136.051 64.5309 135.642C57.2367 135.229 46.7867 132.362 46.0368 133.291C45.4574 134.004 54.141 144.611 55.5746 146.215C57.0082 147.819 61.0382 151.259 61.8843 151.59C63.2878 152.142 67.2818 151.731 67.0031 153.533C66.8487 154.536 64.0457 153.144 63.4663 153.76C62.8868 154.375 65.0703 156.021 65.7179 156.909C66.7605 158.323 71.4522 160.482 69.8141 162.265C68.4547 163.741 66.0427 159.215 64.4287 159.7C62.8146 160.186 65.0843 175.73 62.2232 175.762C59.7249 175.791 62.3635 170.243 61.2207 169.98C60.0778 169.717 59.4001 173.533 58.9931 175.073C58.5861 176.613 57.7159 182.437 55.4663 181.85C53.2167 181.262 56.4408 177.551 56.5871 176.204C56.7335 174.856 56.8458 171.484 55.9255 171.049C55.0052 170.614 53.5937 171.919 53.0102 172.665C52.4267 173.411 51.3039 175.73 49.4012 174.156C47.9977 172.996 55.3861 168.765 55.5967 165.286C55.7731 162.359 53.6117 154.419 52.5009 151.711C51.3721 150.307 37.9807 133.246 38.2654 129.98C38.5501 126.714 41.8624 125.77 45.4293 125.249C48.9962 124.727 61.5916 124.001 61.8021 123.173C61.9044 122.772 58.8688 119.947 56.3084 116.429C53.6177 112.727 51.3761 108.318 50.6944 107.823C49.3531 106.855 45.2268 101.656 43.4764 96.7234C41.7261 91.7911 36.7717 78.2513 36.3988 78.2513C36.0258 78.2513 32.3888 92.9981 30.9692 95.9615C29.5497 98.9249 27.1256 103.005 26.7487 104.03C26.3718 105.054 24.4109 108.006 22.3979 107.803C20.3848 107.601 17.1668 103.312 16.3688 95.4662C15.5708 87.6207 16.1924 80.2282 15.5989 78.3836C15.0054 76.539 13.1207 71.9075 12.445 71.1276C11.7694 70.3476 6.36788 68.7777 4.94433 68.6414C3.52078 68.505 0.557393 69.4213 1.05864 66.5582C1.37944 64.7296 3.70123 66.3577 6.61851 66.4158C9.53578 66.4739 10.7588 64.6113 10.7428 62.7848C10.7428 61.8163 9.74029 59.1437 8.27464 56.6073C6.98943 54.3838 4.50925 52.7377 6.40598 51.5187C8.72977 50.0289 9.15884 52.7738 10.3879 55.1056C11.9197 58.0189 13.4435 61.3813 14.7167 61.3813C15.5327 61.3813 15.6811 57.4314 15.5187 56.5211C15.3563 55.6109 13.8285 51.5367 15.2099 51.1918C17.8164 50.5462 17.6019 56.8339 17.7422 57.9627C17.8826 59.0915 18.1432 63.5045 19.3142 63.7291C20.4851 63.9537 18.5122 58.059 20.6936 58.059C22.1893 58.059 22.039 59.9898 21.7382 62.47C21.3853 65.3832 20.7357 68.9702 21.2791 69.1266C24.0299 69.9286 24.8881 64.4449 26.8269 66.2674C28.2505 67.6048 23.4665 70.8629 23.0174 72.8238C22.5683 74.7847 21.7543 80.5892 23.0936 80.6553C24.4329 80.7215 31.5848 62.9893 33.7963 62.895C35.268 62.8329 37.7882 62.4178 38.7947 63.5928C40.7015 65.7922 47.5185 77.726 47.5185 77.726C47.5185 77.726 51.5285 63.29 55.5726 59.1838C59.0693 55.6369 64.7816 50.1492 65.0983 48.2686C65.0983 48.2686 54.2012 43.7292 51.0954 40.1122C48.2303 36.7759 47.9035 24.0381 47.1897 21.1269C46.4759 18.2156 44.4047 15.3244 43.7812 14.4723C43.1576 13.6201 39.3702 11.6653 40.5451 10.2618C42.2654 8.19462 43.6067 13.4838 47.336 12.8803C49.6318 12.5114 46.5481 2.9736 48.94 2.88337C51.332 2.79315 49.9245 8.28284 50.927 12.2788C51.9295 16.2748 53.1927 15.0658 54.2573 14.4422C55.322 13.8186 59.6708 8.8703 60.6733 10.4502C61.6758 12.0302 58.7766 12.4773 57.9525 13.8206C57.1285 15.164 55.1375 17.6723 55.6608 19.178C55.8433 19.7113 56.136 21.2772 57.0643 22.4582C58.7545 24.6256 61.9044 25.8105 60.533 27.4186C59.4703 28.6617 56.5991 23.7514 54.5601 24.7058C52.521 25.6602 55.1295 34.7107 56.4688 36.6656C57.8082 38.6205 63.7249 41.9327 66.566 40.0521C69.4071 38.1714 68.4667 33.3153 71.6206 29.6C74.7745 25.8847 82.6902 18.0612 91.3578 20.0382C96.7413 21.2632 99.047 28.8281 99.849 35.2641C100.471 35.7174 100.978 36.3092 101.332 36.9926C101.685 37.6759 101.875 38.4322 101.885 39.2015C101.896 39.9707 101.728 40.732 101.393 41.4249C101.059 42.1178 100.568 42.7235 99.9593 43.1939C99.0691 48.0059 95.8751 50.3417 95.8751 52.5853C95.8751 55.1918 95.6525 65.5757 97.6255 67.0333C99.5984 68.491 105.728 66.6323 106.046 65.7963C106.183 65.4514 105.978 64.1923 105.21 63.294C104.122 62.0128 101.451 61.0544 102.917 59.8113C104.001 58.889 105.882 61.0143 106.435 61.7462C106.989 62.478 107.28 63.1717 108.779 63.1356C110.279 63.0995 110.335 59.3542 110.225 57.8184C110.042 55.26 108.26 52.3808 110.301 52.0039C112.28 51.6289 112.164 56.084 112.306 57.1126C112.448 58.1412 112.446 60.6635 113.447 60.9221C114.349 61.1587 115.346 60.1382 116.527 58.9071C117.87 57.5036 118.8 55.661 119.935 56.5933C121.824 58.1432 118.279 59.1116 116.681 61.6058C115.749 63.0614 116.906 69.5997 114.062 72.515C111.751 74.8849 109.172 74.2233 107.245 74.52C104.294 74.9711 102.169 77.742 100.699 76.5611C99.2956 75.4403 102.704 74.2413 103.071 73.704L97.2044 74.4378Z" fill="#00919E"/>
<path d="M36.5913 73.1847C36.4309 72.521 35.9236 72.2644 35.2579 72.4088C34.5622 72.5591 34.1832 73.291 33.8865 73.9386C32.2608 77.4747 30.269 80.8307 27.9437 83.9515C27.278 84.8438 25.1547 88.7154 24.8199 89.766C23.0188 95.4328 21.9758 101.313 21.7182 107.254C21.7182 107.376 21.7182 107.484 21.7041 107.599C21.9071 107.7 22.1251 107.767 22.3497 107.799C24.3547 108 26.3236 105.052 26.7006 104.026C27.0775 102.999 29.5076 98.9189 30.9211 95.9575C32.3346 92.9961 35.9777 78.2473 36.3507 78.2473C36.4148 78.2473 36.9301 74.5862 36.5913 73.1847Z" fill="#09487E"/>
<path d="M73.0381 125.918C72.0697 126.175 66.5881 129.279 59.358 129.631C56.6954 129.762 50.0669 129.72 47.1777 129.317C46.1752 129.178 44.5972 129.166 44.3326 129.824C43.8895 130.925 44.5331 132.583 45.9887 133.379C45.9875 133.346 45.9974 133.313 46.0168 133.287C46.7666 132.358 57.2167 135.225 64.5109 135.638C71.769 136.039 84.6531 135.037 85.5894 133.116C85.6797 132.932 86.7584 130.01 86.7924 129.802C86.8572 129.43 86.8538 129.05 86.7824 128.679C84.1278 128.09 81.4451 127.905 78.8587 126.901C76.8978 126.143 75.0772 125.381 73.0381 125.918Z" fill="#09487E"/>
<path d="M99.9513 43.1939C100.561 42.7232 101.052 42.1169 101.386 41.4232C101.721 40.7295 101.889 39.9674 101.877 39.1974C101.866 38.4274 101.675 37.6707 101.32 36.9872C100.965 36.3038 100.456 35.7125 99.833 35.2601C99.5474 32.7303 98.9956 30.2376 98.1869 27.8236C97.1182 26.9414 96.1819 26.4201 95.2676 26.1454C92.3162 25.2431 84.0957 26.1334 81.4952 28.6877C79.8912 30.2637 78.612 34.023 77.812 37.7102C77.3469 39.8496 77.4892 42.0731 77.1684 44.2385C76.2842 50.2014 74.1108 52.9342 70.3514 57.6399C63.358 66.3657 57.2087 76.2182 55.4362 87.2618C54.8608 90.8447 54.7225 94.6141 53.0022 97.8081C52.6012 98.5419 52.128 99.2437 51.8974 100.046C49.6919 107.685 59.8653 107.155 65.2507 103.833C65.2507 103.833 69.4071 99.1735 71.2657 97.3108C73.1244 95.4482 83.416 87.1856 86.3233 83.4763C89.2305 79.7671 91.9834 68.3747 91.9834 68.3747C91.9834 68.3747 93.85 59.9818 95.8691 56.9301C95.835 55.0495 95.8591 53.4154 95.8591 52.5813C95.8671 50.3417 99.061 48.0019 99.9513 43.1939Z" fill="#09487E"/>
<path d="M75.0011 29.4069C76.6924 27.5279 77.6237 25.6089 77.0814 25.1207C76.539 24.6325 74.7283 25.76 73.037 27.639C71.3457 29.518 70.4144 31.4369 70.9568 31.9251C71.4991 32.4133 73.3099 31.2859 75.0011 29.4069Z" fill="#09487E"/>
</svg>
